<svg xmlns="http://www.w3.org/2000/svg" version="1.1" xmlns:xlink="http://www.w3.org/1999/xlink" width="200" height="200"><svg xmlns="http://www.w3.org/2000/svg" version="1.1" xmlns:xlink="http://www.w3.org/1999/xlink" width="200" height="200"><svg xmlns="http://www.w3.org/2000/svg" version="1.1" xmlns:xlink="http://www.w3.org/1999/xlink" viewBox="0 0 200 200"><rect width="200" height="200" fill="url('#gradient')"></rect><defs><linearGradient id="gradient" gradientTransform="rotate(0 0.5 0.5)"><stop offset="0%" stop-color="#4c4848"></stop><stop offset="100%" stop-color="#192025"></stop></linearGradient></defs><g><g fill="#f3bd7d" transform="matrix(2.5585785674625208,0,0,2.5585785674625208,8.275348479816614,118.93582455467211)" stroke="#c06a3e" stroke-width="0.2"><path d="M9.17-4.81L12.58-4.81Q12.51-3.33 11.78-2.19Q11.04-1.05 9.72-0.43Q8.40 0.20 6.70 0.20L6.70 0.20Q3.90 0.20 2.29-1.63Q0.67-3.46 0.67-6.79L0.67-6.79L0.67-7.49Q0.67-9.58 1.40-11.15Q2.13-12.71 3.50-13.57Q4.86-14.42 6.66-14.42L6.66-14.42Q9.25-14.42 10.82-13.06Q12.39-11.70 12.61-9.31L12.61-9.31L9.19-9.31Q9.15-10.61 8.54-11.17Q7.92-11.74 6.66-11.74L6.66-11.74Q5.38-11.74 4.79-10.78Q4.19-9.82 4.16-7.72L4.16-7.72L4.16-6.72Q4.16-4.44 4.73-3.47Q5.30-2.49 6.70-2.49L6.70-2.49Q7.88-2.49 8.51-3.05Q9.13-3.60 9.17-4.81L9.17-4.81ZM17.27-15L17.27-9.43Q18.32-10.76 19.96-10.76L19.96-10.76Q21.71-10.76 22.60-9.73Q23.49-8.69 23.51-6.67L23.51-6.67L23.51 0L20.21 0L20.21-6.59Q20.21-7.43 19.86-7.83Q19.52-8.22 18.70-8.22L18.70-8.22Q17.69-8.22 17.27-7.58L17.27-7.58L17.27 0L13.97 0L13.97-15L17.27-15ZM34.58 0L31.29 0Q31.11-0.32 30.98-0.95L30.98-0.95Q30.07 0.20 28.44 0.20L28.44 0.20Q26.94 0.20 25.90-0.71Q24.85-1.61 24.85-2.98L24.85-2.98Q24.85-4.70 26.12-5.58Q27.39-6.46 29.81-6.46L29.81-6.46L30.83-6.46L30.83-7.01Q30.83-8.47 29.57-8.47L29.57-8.47Q28.40-8.47 28.40-7.31L28.40-7.31L25.11-7.31Q25.11-8.85 26.41-9.80Q27.71-10.76 29.74-10.76Q31.76-10.76 32.93-9.78Q34.10-8.79 34.13-7.07L34.13-7.07L34.13-2.39Q34.15-0.94 34.58-0.17L34.58-0.17L34.58 0ZM29.23-2.15L29.23-2.15Q29.84-2.15 30.25-2.41Q30.65-2.68 30.83-3.01L30.83-3.01L30.83-4.70L29.87-4.70Q28.15-4.70 28.15-3.15L28.15-3.15Q28.15-2.71 28.46-2.43Q28.76-2.15 29.23-2.15ZM36.49-13.19L39.79-13.19L39.79-10.57L41.52-10.57L41.52-8.28L39.79-8.28L39.79-3.45Q39.79-2.85 40-2.62Q40.21-2.38 40.85-2.38L40.85-2.38Q41.34-2.38 41.67-2.44L41.67-2.44L41.67-0.09Q40.78 0.20 39.81 0.20L39.81 0.20Q38.12 0.20 37.30-0.61Q36.49-1.41 36.49-3.04L36.49-3.04L36.49-8.28L35.15-8.28L35.15-10.57L36.49-10.57L36.49-13.19ZM52.63-5.36L52.63-5.20Q52.63-2.60 51.55-1.20Q50.48 0.20 48.53 0.20L48.53 0.20Q46.91 0.20 45.93-1.08L45.93-1.08L45.79 0L42.84 0L42.84-15L46.13-15L46.13-9.72Q47.05-10.76 48.51-10.76L48.51-10.76Q50.48-10.76 51.55-9.35Q52.63-7.93 52.63-5.36L52.63-5.36ZM49.33-5.40L49.33-5.40Q49.33-6.92 48.92-7.57Q48.52-8.22 47.68-8.22L47.68-8.22Q46.56-8.22 46.13-7.37L46.13-7.37L46.13-3.17Q46.55-2.33 47.70-2.33L47.70-2.33Q48.86-2.33 49.17-3.47L49.17-3.47Q49.33-4.02 49.33-5.40ZM53.67-4.82L53.66-5.38Q53.66-6.96 54.28-8.20Q54.89-9.43 56.04-10.10Q57.20-10.76 58.75-10.76L58.75-10.76Q61.12-10.76 62.49-9.29Q63.86-7.82 63.86-5.29L63.86-5.29L63.86-5.18Q63.86-2.71 62.49-1.25Q61.11 0.20 58.77 0.20L58.77 0.20Q56.51 0.20 55.15-1.16Q53.78-2.51 53.67-4.82L53.67-4.82ZM56.96-5.77L56.95-5.18Q56.95-3.71 57.41-3.03Q57.87-2.34 58.77-2.34L58.77-2.34Q60.53-2.34 60.57-5.05L60.57-5.05L60.57-5.38Q60.57-8.22 58.75-8.22L58.75-8.22Q57.10-8.22 56.96-5.77L56.96-5.77ZM65.85-13.19L69.14-13.19L69.14-10.57L70.88-10.57L70.88-8.28L69.14-8.28L69.14-3.45Q69.14-2.85 69.36-2.62Q69.57-2.38 70.21-2.38L70.21-2.38Q70.69-2.38 71.03-2.44L71.03-2.44L71.03-0.09Q70.14 0.20 69.17 0.20L69.17 0.20Q67.47 0.20 66.66-0.61Q65.85-1.41 65.85-3.04L65.85-3.04L65.85-8.28L64.50-8.28L64.50-10.57L65.85-10.57L65.85-13.19Z"></path></g></g></svg></svg><style>@media (prefers-color-scheme: light) { :root { filter: none; } }
@media (prefers-color-scheme: dark) { :root { filter: none; } }
</style></svg>